<svg width="24" height="24" viewBox="0 0 24 24" fill="none" xmlns="http://www.w3.org/2000/svg">
<g clip-path="url(#clip0_501_26)">
<path d="M18.6234 22H5.37673C4.80086 22.0034 4.2338 21.8586 3.73003 21.5795C3.22626 21.3005 2.80271 20.8966 2.50006 20.4067C2.20115 19.9285 2.03021 19.3815 2.00365 18.8182C1.97709 18.2549 2.09581 17.6942 2.34839 17.19L8.98339 5.51002C9.26892 4.95317 9.703 4.48621 10.2376 4.16088C10.7721 3.83554 11.3863 3.66453 12.0121 3.66677C12.6379 3.66901 13.2509 3.84443 13.7831 4.17359C14.3153 4.50275 14.746 4.9728 15.0276 5.53169L21.6292 17.1492C21.8909 17.6571 22.0165 18.2242 21.9937 18.7951C21.9709 19.366 21.8006 19.9212 21.4992 20.4067C21.1967 20.8965 20.7732 21.3003 20.2696 21.5793C19.766 21.8584 19.1991 22.0032 18.6234 22V22ZM12.0001 5.33336C11.6812 5.32807 11.3675 5.41377 11.0956 5.5804C10.8238 5.74703 10.605 5.98769 10.4651 6.27419L10.4434 6.31502L3.82006 17.9725C3.70211 18.2186 3.64906 18.4907 3.66599 18.763C3.68291 19.0353 3.76922 19.2988 3.91673 19.5284C4.07069 19.7764 4.28584 19.9807 4.5415 20.1217C4.79717 20.2627 5.08478 20.3355 5.37673 20.3334H18.6267C18.9187 20.3355 19.2063 20.2627 19.4619 20.1217C19.7176 19.9807 19.9328 19.7764 20.0867 19.5284C20.2368 19.2916 20.3226 19.0199 20.3357 18.74C20.3489 18.46 20.2889 18.1814 20.1617 17.9317L13.5567 6.31502C13.4189 6.01918 13.1989 5.76928 12.9228 5.5952C12.6467 5.42111 12.3264 5.33021 12.0001 5.33336V5.33336Z" fill="#E23B06"/>
</g>
<path d="M11.9935 15.3333C11.7725 15.3333 11.5605 15.2455 11.4042 15.0893C11.248 14.933 11.1602 14.721 11.1602 14.5V8.83333C11.1602 8.61232 11.248 8.40036 11.4042 8.24408C11.5605 8.0878 11.7725 8 11.9935 8C12.2145 8 12.4265 8.0878 12.5827 8.24408C12.739 8.40036 12.8268 8.61232 12.8268 8.83333V14.5C12.8268 14.721 12.739 14.933 12.5827 15.0893C12.4265 15.2455 12.2145 15.3333 11.9935 15.3333ZM11.9935 17C11.8287 17 11.6676 17.0489 11.5305 17.1404C11.3935 17.232 11.2867 17.3622 11.2236 17.5144C11.1605 17.6667 11.144 17.8343 11.1762 17.9959C11.2083 18.1576 11.2877 18.306 11.4042 18.4226C11.5208 18.5391 11.6693 18.6185 11.8309 18.6507C11.9926 18.6828 12.1601 18.6663 12.3124 18.6032C12.4647 18.5402 12.5948 18.4334 12.6864 18.2963C12.7779 18.1593 12.8268 17.9982 12.8268 17.8333C12.8268 17.6123 12.739 17.4004 12.5827 17.2441C12.4265 17.0878 12.2145 17 11.9935 17Z" fill="#E23B06"/>
<defs>
<clipPath id="clip0_501_26">
<rect width="20" height="20" fill="white" transform="translate(2 2)"/>
</clipPath>
</defs>
</svg>
